<?xml version="1.0" encoding="UTF-8" standalone="no"?>
<svg
   xmlns:dc="http://purl.org/dc/elements/1.1/"
   xmlns:cc="http://creativecommons.org/ns#"
   xmlns:rdf="http://www.w3.org/1999/02/22-rdf-syntax-ns#"
   xmlns:svg="http://www.w3.org/2000/svg"
   xmlns="http://www.w3.org/2000/svg"
   xmlns:sodipodi="http://sodipodi.sourceforge.net/DTD/sodipodi-0.dtd"
   xmlns:inkscape="http://www.inkscape.org/namespaces/inkscape"
   sodipodi:docname="about_me.svg"
   inkscape:version="1.0 (4035a4fb49, 2020-05-01)"
   id="svg3542"
   version="1.1"
   viewBox="0 0 107.95 22.489584"
   height="85"
   width="408">
  <defs
     id="defs3536" />
  <sodipodi:namedview
     units="px"
     inkscape:window-maximized="1"
     inkscape:window-y="-9"
     inkscape:window-x="-9"
     inkscape:window-height="1001"
     inkscape:window-width="1920"
     showgrid="false"
     inkscape:document-rotation="0"
     inkscape:current-layer="layer1"
     inkscape:document-units="mm"
     inkscape:cy="234.13459"
     inkscape:cx="273.98393"
     inkscape:zoom="1.4225266"
     inkscape:pageshadow="2"
     inkscape:pageopacity="0.0"
     borderopacity="1.0"
     bordercolor="#666666"
     pagecolor="#ffffff"
     id="base" />
  <metadata
     id="metadata3539">
    <rdf:RDF>
      <cc:Work
         rdf:about="">
        <dc:format>image/svg+xml</dc:format>
        <dc:type
           rdf:resource="http://purl.org/dc/dcmitype/StillImage" />
        <dc:title></dc:title>
      </cc:Work>
    </rdf:RDF>
  </metadata>
  <g
     id="layer1"
     inkscape:groupmode="layer"
     inkscape:label="Layer 1">
    <g
       id="g1797"
       transform="translate(-41.290967,-53.194669)"
       style="fill:#000000;fill-opacity:1">
      <path
         transform="scale(0.26458333)"
         d="m 405.37695,207.86719 -2,2.3125 v 11.90625 h 2 z m -195.92968,1.03125 16.03906,69.53125 h -20.02344 l 0.46094,2 h 21.5625 l -16.5,-71.53125 z m 39.28906,0 v 14.82812 c 0.67858,-0.37968 1.34439,-0.7087 2,-0.99023 v -13.83789 z m 223.96679,0 7.54883,12.90625 0.41602,-0.70703 -7.13477,-12.19922 z m 37.31446,0 v 69.53125 h -19.51563 v 2 h 21.51563 v -71.53125 z m -163.54688,15.1875 v 25.75 c 0,3.625 0.17188,6.25 0.51563,7.875 0.26245,1.21681 0.9556,1.96417 2.07422,2.25195 -0.024,-0.0846 -0.0549,-0.16236 -0.0742,-0.25195 -0.34375,-1.625 -0.51563,-4.25 -0.51563,-7.875 v -27.75 z m 26.95313,0 v 54.34375 H 356.5332 v 2 h 18.89063 v -56.34375 z m 38.29687,0 v 13.75 h -8.34375 v 7.54687 c 0,3.84375 0.1875,6.59375 0.5625,8.25 0.28863,1.2507 0.98867,2.01465 2.0918,2.30274 -0.031,-0.10072 -0.0669,-0.19486 -0.0918,-0.30274 -0.37498,-1.65625 -0.5625,-4.40625 -0.5625,-8.25 v -7.54687 h 8.34375 v -15.75 z m -97.07031,2.84179 c 0.57976,0.66219 1.14158,1.3726 1.67969,2.14258 3.875,5.5 5.8125,12.60938 5.8125,21.32813 0,8.8125 -1.9375,15.8125 -5.8125,21 -3.875,5.1875 -9.10938,7.78125 -15.70313,7.78125 -4.24294,0 -7.9352,-1.36788 -11.08007,-4.08985 3.54302,4.0556 7.90099,6.08985 13.08007,6.08985 6.59375,0 11.82813,-2.59375 15.70313,-7.78125 3.875,-5.1875 5.8125,-12.1875 5.8125,-21 0,-8.71875 -1.9375,-15.82813 -5.8125,-21.32813 -1.13351,-1.62193 -2.36138,-2.99894 -3.67969,-4.14258 z m 236.2793,0.0527 c 0.28745,0.32577 0.57387,0.65991 0.85351,1.01172 1.96873,2.40625 3.49998,5.40625 4.59375,9 1.09375,3.59375 1.71876,6.53125 1.875,8.8125 0.18747,2.28125 0.29688,4.96875 0.32813,8.0625 h -20.15625 c 0.68749,2.90625 1.87499,5.17187 3.5625,6.79687 0.28501,0.26429 0.57796,0.49829 0.875,0.71875 -1.10106,-1.46911 -1.91471,-3.30561 -2.4375,-5.51562 h 20.15625 c -0.0312,-3.09375 -0.14066,-5.78125 -0.32813,-8.0625 -0.15624,-2.28125 -0.78123,-5.21875 -1.875,-8.8125 -1.09374,-3.59375 -2.62499,-6.59375 -4.59375,-9 -0.909,-1.14359 -1.86196,-2.14328 -2.85351,-3.01172 z m -283.05078,0.19531 c 0.62645,0.72119 1.23259,1.50389 1.81054,2.36328 3.625,5.34375 5.4375,12.17188 5.4375,20.48438 0,5.03125 -0.82812,9.6875 -2.48437,13.96875 -1.65625,4.25 -3.78125,7.5 -6.375,9.75 -2.5625,2.21875 -5.17188,3.5625 -7.82813,4.03125 -2.65625,0.4375 -7.10937,0.65625 -13.35937,0.65625 h -14.125 v 2 h 16.125 c 6.25,0 10.70312,-0.21875 13.35937,-0.65625 2.65625,-0.46875 5.26563,-1.8125 7.82813,-4.03125 2.59375,-2.25 4.71875,-5.5 6.375,-9.75 1.65625,-4.28125 2.48437,-8.9375 2.48437,-13.96875 0,-8.3125 -1.8125,-15.14063 -5.4375,-20.48438 -1.16985,-1.73952 -2.44201,-3.19002 -3.81054,-4.36328 z m -74.54883,4.80078 -4.03125,17.48438 h 2.46094 l 2.78711,-12.08399 z m 348.51562,3.04688 c -1.3125,0 -2.40626,0.78125 -3.28125,2.34375 -0.87501,1.5625 -1.3125,3.5625 -1.3125,6 v 0.60937 h 2.06446 c 0.13953,-1.81267 0.54727,-3.35797 1.24804,-4.60937 0.87501,-1.5625 1.96875,-2.34375 3.28125,-2.34375 0.37077,0 0.72278,0.0797 1.06055,0.22265 -0.85071,-1.47603 -1.86923,-2.22265 -3.06055,-2.22265 z m -162.39453,2.8125 -1.73047,2 h 5.875 v -2 z m 92.73828,4.78125 v 35.8125 h -19.51562 v 2 h 21.51562 v -34.38281 z m 16.3125,0 -7.82812,13.12109 1.57812,2.70703 6.25,-10.47656 z m -187.17187,0.46875 c -1.3125,0 -2.375,0.59375 -3.1875,1.78125 -0.8125,1.1875 -1.21875,2.75 -1.21875,4.6875 0,1.78125 0.40625,3.29687 1.21875,4.54687 0.52305,0.8047 1.12427,1.34615 1.80273,1.63282 -0.6687,-1.17873 -1.02148,-2.56374 -1.02148,-4.17969 0,-1.9375 0.40625,-3.5 1.21875,-4.6875 0.8125,-1.1875 1.875,-1.78125 3.1875,-1.78125 0.42858,0 0.82551,0.0774 1.19531,0.2207 -0.0672,-0.12892 -0.12073,-0.27138 -0.19531,-0.39258 -0.75,-1.21875 -1.75,-1.82812 -3,-1.82812 z m -49.45313,0.60937 c -1,0 -2.04687,0.40625 -3.14062,1.21875 v 12.98438 h 0.375 c 0.58417,0 1.1213,-0.031 1.625,-0.082 v -10.90235 c 1.09375,-0.8125 2.14062,-1.21875 3.14062,-1.21875 0.45,0 0.86554,0.0821 1.25,0.23633 -0.0653,-0.12288 -0.13113,-0.24614 -0.20312,-0.36133 -0.75,-1.25 -1.76563,-1.875 -3.04688,-1.875 z m 161.84375,10.34375 c -0.60958,1.27866 -1.27722,2.24377 -2,2.91406 v 17.44532 c -3.0625,2.9375 -7,4.40625 -11.8125,4.40625 -2.25,0 -4.45313,-0.625 -6.60937,-1.875 -0.79186,-0.45905 -1.54902,-0.9983 -2.27344,-1.61328 1.2952,1.50326 2.71808,2.71162 4.27344,3.61328 2.15624,1.25 4.35937,1.875 6.60937,1.875 4.8125,0 8.75,-1.46875 11.8125,-4.40625 z m 146.85938,4.875 c -0.62167,0.92544 -1.2921,1.73104 -2,2.44727 v 5.44336 c -4.53125,8.25 -10.78125,12.375 -18.75,12.375 -5.03974,0 -9.3008,-1.51463 -12.78711,-4.53516 3.81121,4.35207 8.73768,6.53516 14.78711,6.53516 7.96873,0 14.21875,-4.125 18.75,-12.375 z m -375.125,7.32813 -2.76563,12.1875 h -19.31054 l -0.48633,2 h 21.79687 l 2.76563,-12.1875 h 14.11719 l -0.46094,-2 z m 169.07812,2.29687 c -1.9375,3.53125 -3.96875,6.125 -6.09375,7.78125 -2.09375,1.65625 -4.54687,2.48438 -7.35937,2.48438 -2.375,0 -4.5625,-0.70313 -6.5625,-2.10938 -0.23584,-0.16582 -0.46361,-0.33958 -0.68555,-0.51758 0.76384,0.95408 1.65747,1.79471 2.68555,2.51758 2,1.40625 4.1875,2.10938 6.5625,2.10938 2.8125,0 5.26562,-0.82813 7.35937,-2.48438 1.40573,-1.09564 2.77007,-2.61118 4.09375,-4.52734 z"
         style="font-style:normal;font-variant:normal;font-weight:normal;font-stretch:normal;font-size:25.4px;line-height:1.25;font-family:'Gill Sans Ultra Bold Condensed';-inkscape-font-specification:'Gill Sans Ultra Bold Condensed, Normal';font-variant-ligatures:normal;font-variant-caps:normal;font-variant-numeric:normal;font-variant-east-asian:normal;letter-spacing:0px;word-spacing:0px;fill:#000000;fill-opacity:1;stroke:none;stroke-width:0.999999"
         id="path855" />
      <g
         aria-label="About Me"
         id="text4107"
         style="font-style:normal;font-variant:normal;font-weight:normal;font-stretch:normal;font-size:25.4px;line-height:1.25;font-family:'Gill Sans Ultra Bold Condensed';-inkscape-font-specification:'Gill Sans Ultra Bold Condensed, Normal';font-variant-ligatures:normal;font-variant-caps:normal;font-variant-numeric:normal;font-variant-east-asian:normal;letter-spacing:0px;word-spacing:0px;fill:#000000;fill-opacity:1;stroke:none;stroke-width:0.264583">
        <path
           d="m 48.539027,69.91423 -0.731739,3.22461 h -5.767089 l 4.601269,-18.925977 h 8.123535 L 59.130628,73.13884 H 53.42555 l -0.744141,-3.22461 z m 1.016992,-4.440039 h 2.108398 L 50.62262,60.848117 Z"
           style="font-style:normal;font-variant:normal;font-weight:normal;font-stretch:normal;font-size:25.4px;font-family:'Gill Sans Ultra Bold Condensed';-inkscape-font-specification:'Gill Sans Ultra Bold Condensed, Normal';font-variant-ligatures:normal;font-variant-caps:normal;font-variant-numeric:normal;font-variant-east-asian:normal;fill:#000000;fill-opacity:1;stroke:none;stroke-width:0.264583"
           id="path870" />
        <path
           d="m 60.048402,54.212863 h 5.233789 v 4.452442 q 1.041796,-0.58291 1.947168,-0.58291 2.17041,0 3.596679,2.1208 1.438672,2.120801 1.438672,5.419825 0,1.996777 -0.657324,3.695898 -0.657324,1.686719 -1.686719,2.579687 -1.016992,0.880567 -2.071191,1.066602 -1.054199,0.173633 -3.534668,0.173633 h -4.266406 z m 5.233789,10.058301 v 3.435449 h 0.09922 q 1.041797,0 1.438672,-0.409277 0.409278,-0.42168 0.409278,-1.500684 0,-0.855761 -0.310059,-1.351855 -0.297656,-0.496094 -0.806152,-0.496094 -0.396875,0 -0.830957,0.322461 z"
           style="font-style:normal;font-variant:normal;font-weight:normal;font-stretch:normal;font-size:25.4px;font-family:'Gill Sans Ultra Bold Condensed';-inkscape-font-specification:'Gill Sans Ultra Bold Condensed, Normal';font-variant-ligatures:normal;font-variant-caps:normal;font-variant-numeric:normal;font-variant-east-asian:normal;fill:#000000;fill-opacity:1;stroke:none;stroke-width:0.264583"
           id="path872" />
        <path
           d="m 79.272034,57.896359 q 2.368847,0 3.894335,2.182813 1.537891,2.182812 1.537891,5.643066 0,3.497461 -1.537891,5.55625 -1.53789,2.058789 -4.154785,2.058789 -2.393652,0 -3.906738,-2.182812 -1.500683,-2.195215 -1.500683,-5.76709 0,-3.286621 1.5875,-5.382617 1.5875,-2.108399 4.080371,-2.108399 z m -0.124024,9.301758 q 0.483692,0 0.806152,-0.458887 0.334864,-0.471289 0.334864,-1.190625 0,-0.79375 -0.297656,-1.277441 -0.297657,-0.483691 -0.79375,-0.483691 -0.520899,0 -0.84336,0.471289 -0.322461,0.471289 -0.322461,1.240234 0,0.706934 0.322461,1.203027 0.322461,0.496094 0.79375,0.496094 z"
           style="font-style:normal;font-variant:normal;font-weight:normal;font-stretch:normal;font-size:25.4px;font-family:'Gill Sans Ultra Bold Condensed';-inkscape-font-specification:'Gill Sans Ultra Bold Condensed, Normal';font-variant-ligatures:normal;font-variant-caps:normal;font-variant-numeric:normal;font-variant-east-asian:normal;fill:#000000;fill-opacity:1;stroke:none;stroke-width:0.264583"
           id="path874" />
        <path
           d="m 93.051037,58.231223 h 5.221387 V 73.13884 H 93.27428 v -2.616895 q -0.768946,1.401465 -1.612305,2.058789 -0.830957,0.657324 -1.947168,0.657324 -0.942578,0 -1.736328,-0.558105 -0.79375,-0.558105 -1.190625,-1.463477 -0.384473,-0.905371 -0.483691,-1.90996 -0.08682,-1.016993 -0.08682,-3.993555 v -7.081738 h 4.923731 v 7.342187 q 0,1.438672 0.136425,2.083594 0.136426,0.632519 0.855762,0.632519 0.37207,0 0.644922,-0.322461 0.272851,-0.334863 0.272851,-0.471289 z"
           style="font-style:normal;font-variant:normal;font-weight:normal;font-stretch:normal;font-size:25.4px;font-family:'Gill Sans Ultra Bold Condensed';-inkscape-font-specification:'Gill Sans Ultra Bold Condensed, Normal';font-variant-ligatures:normal;font-variant-caps:normal;font-variant-numeric:normal;font-variant-east-asian:normal;fill:#000000;fill-opacity:1;stroke:none;stroke-width:0.264583"
           id="path876" />
        <path
           d="m 106.19752,58.231223 h 2.20762 v 4.167187 h -2.20762 v 1.996778 q 0,1.525488 0.14883,2.182812 0.14883,0.644922 0.84336,0.644922 0.70693,0 1.21543,-1.066602 v 5.915918 q -1.21543,1.16582 -3.12539,1.16582 -0.89297,0 -1.74873,-0.496093 -0.85576,-0.496094 -1.51309,-1.451074 -0.64492,-0.967383 -0.85576,-2.05879 -0.19844,-1.091406 -0.19844,-3.943945 V 62.39841 h -2.083591 l 7.317381,-8.458398 z"
           style="font-style:normal;font-variant:normal;font-weight:normal;font-stretch:normal;font-size:25.4px;font-family:'Gill Sans Ultra Bold Condensed';-inkscape-font-specification:'Gill Sans Ultra Bold Condensed, Normal';font-variant-ligatures:normal;font-variant-caps:normal;font-variant-numeric:normal;font-variant-east-asian:normal;fill:#000000;fill-opacity:1;stroke:none;stroke-width:0.264583"
           id="path878" />
        <path
           d="m 124.40416,73.13884 h -5.69268 V 54.212863 h 5.51905 l 2.30683,3.943946 2.31924,-3.943946 h 5.55625 V 73.13884 h -5.69267 v -9.475391 l -2.18282,3.658692 -2.1332,-3.658692 z"
           style="font-style:normal;font-variant:normal;font-weight:normal;font-stretch:normal;font-size:25.4px;font-family:'Gill Sans Ultra Bold Condensed';-inkscape-font-specification:'Gill Sans Ultra Bold Condensed, Normal';font-variant-ligatures:normal;font-variant-caps:normal;font-variant-numeric:normal;font-variant-east-asian:normal;fill:#000000;fill-opacity:1;stroke:none;stroke-width:0.264583"
           id="path880" />
        <path
           d="m 147.26168,66.640012 h -5.33301 q 0.27285,1.153418 0.94258,1.79834 0.68213,0.632519 1.53789,0.632519 1.76113,0 2.85254,-1.624707 v 2.616895 q -1.79834,3.274218 -4.96094,3.274218 -2.69131,0 -4.2664,-2.17041 -1.5751,-2.182812 -1.5751,-5.953125 0,-2.083594 0.78135,-3.894336 0.78134,-1.823144 1.97197,-2.629297 1.19062,-0.818554 2.71611,-0.818554 0.93018,0 1.84795,0.483691 0.91777,0.471289 1.68672,1.438672 0.78135,0.954981 1.21543,2.38125 0.43408,1.42627 0.49609,2.331641 0.0744,0.905371 0.0868,2.133203 z m -5.64307,-2.616895 h 2.44327 q -0.0372,-1.091406 -0.38448,-1.723926 -0.34726,-0.644921 -0.84336,-0.644921 -0.5209,0 -0.86816,0.620117 -0.34727,0.620117 -0.34727,1.5875 z"
           style="font-style:normal;font-variant:normal;font-weight:normal;font-stretch:normal;font-size:25.4px;font-family:'Gill Sans Ultra Bold Condensed';-inkscape-font-specification:'Gill Sans Ultra Bold Condensed, Normal';font-variant-ligatures:normal;font-variant-caps:normal;font-variant-numeric:normal;font-variant-east-asian:normal;fill:#000000;fill-opacity:1;stroke:none;stroke-width:0.264583"
           id="path882" />
      </g>
    </g>
    <text
       xml:space="preserve"
       style="font-style:normal;font-weight:normal;font-size:10.5833px;line-height:125%;font-family:sans-serif;letter-spacing:0px;word-spacing:0px;fill:#000000;fill-opacity:1;stroke:none;stroke-width:0.264583px;stroke-linecap:butt;stroke-linejoin:miter;stroke-opacity:1"
       x="77.374062"
       y="53.566658"
       id="text3312"><tspan
         sodipodi:role="line"
         id="tspan3310"
         x="77.374062"
         y="53.566658"
         style="stroke-width:0.264583px" /></text>
  </g>
</svg>
