<?xml version="1.0" encoding="UTF-8" standalone="no"?>
<svg
   xmlns:dc="http://purl.org/dc/elements/1.1/"
   xmlns:cc="http://creativecommons.org/ns#"
   xmlns:rdf="http://www.w3.org/1999/02/22-rdf-syntax-ns#"
   xmlns:svg="http://www.w3.org/2000/svg"
   xmlns="http://www.w3.org/2000/svg"
   xmlns:sodipodi="http://sodipodi.sourceforge.net/DTD/sodipodi-0.dtd"
   xmlns:inkscape="http://www.inkscape.org/namespaces/inkscape"
   width="210mm"
   height="96mm"
   viewBox="0 0 210 96"
   version="1.1"
   id="svg8"
   inkscape:version="0.92.5 (2060ec1f9f, 2020-04-08)"
   sodipodi:docname="project_banner.svg">
  <defs
     id="defs2">
    <inkscape:path-effect
       effect="perspective-envelope"
       up_left_point="37.70571,77.751325"
       up_right_point="39.549525,78.252586"
       down_left_point="37.70571,81.299946"
       down_right_point="39.549525,81.801726"
       id="path-effect4683"
       is_visible="true"
       deform_type="envelope_deformation"
       horizontal_mirror="false"
       vertical_mirror="false"
       overflow_perspective="false" />
    <inkscape:path-effect
       effect="perspective-envelope"
       up_left_point="35.694461,77.370987"
       up_right_point="37.538794,77.711019"
       down_left_point="35.694461,80.922192"
       down_right_point="37.538794,81.259639"
       id="path-effect4681"
       is_visible="true"
       deform_type="envelope_deformation"
       horizontal_mirror="false"
       vertical_mirror="false"
       overflow_perspective="false" />
    <inkscape:path-effect
       effect="perspective-envelope"
       up_left_point="33.660476,77.152912"
       up_right_point="35.527546,77.349799"
       down_left_point="33.660476,80.703083"
       down_right_point="35.527546,80.901005"
       id="path-effect4679"
       is_visible="true"
       deform_type="envelope_deformation"
       horizontal_mirror="false"
       vertical_mirror="false"
       overflow_perspective="false" />
    <inkscape:path-effect
       effect="perspective-envelope"
       up_left_point="31.811494,77.070748"
       up_right_point="33.494596,77.141027"
       down_left_point="31.811494,80.620917"
       down_right_point="33.494596,80.690163"
       id="path-effect4677"
       is_visible="true"
       deform_type="envelope_deformation"
       horizontal_mirror="false"
       vertical_mirror="false"
       overflow_perspective="false" />
    <inkscape:path-effect
       effect="perspective-envelope"
       up_left_point="30.217792,77.095034"
       up_right_point="31.648714,77.067129"
       down_left_point="30.217792,80.643139"
       down_right_point="31.648714,80.616784"
       id="path-effect4675"
       is_visible="true"
       deform_type="envelope_deformation"
       horizontal_mirror="false"
       vertical_mirror="false"
       overflow_perspective="false" />
    <inkscape:path-effect
       effect="perspective-envelope"
       up_left_point="28.024645,77.273834"
       up_right_point="30.052946,77.09917"
       down_left_point="28.024645,80.824524"
       down_right_point="30.052946,80.647272"
       id="path-effect4673"
       is_visible="true"
       deform_type="envelope_deformation"
       horizontal_mirror="false"
       vertical_mirror="false"
       overflow_perspective="false" />
    <inkscape:path-effect
       effect="perspective-envelope"
       up_left_point="25.641845,77.655723"
       up_right_point="27.854629,77.295538"
       down_left_point="25.641845,81.206929"
       down_right_point="27.854629,80.845709"
       id="path-effect4671"
       is_visible="true"
       deform_type="envelope_deformation"
       horizontal_mirror="false"
       vertical_mirror="false"
       overflow_perspective="false" />
    <inkscape:path-effect
       down_right_point="25.47183,81.247752"
       down_left_point="23.420276,81.797074"
       up_right_point="25.47183,77.696033"
       up_left_point="23.420276,78.246387"
       effect="perspective-envelope"
       id="path-effect4669"
       is_visible="true"
       deform_type="envelope_deformation"
       horizontal_mirror="false"
       vertical_mirror="false"
       overflow_perspective="false" />
  </defs>
  <sodipodi:namedview
     id="base"
     pagecolor="#ffffff"
     bordercolor="#666666"
     borderopacity="1.0"
     inkscape:pageopacity="0.0"
     inkscape:pageshadow="2"
     inkscape:zoom="0.37608933"
     inkscape:cx="389"
     inkscape:cy="932"
     inkscape:document-units="mm"
     inkscape:current-layer="layer1"
     inkscape:document-rotation="0"
     showgrid="false"
     inkscape:window-width="1920"
     inkscape:window-height="1001"
     inkscape:window-x="-9"
     inkscape:window-y="-9"
     inkscape:window-maximized="1"
     showguides="false"
     inkscape:snap-others="true"
     inkscape:object-nodes="true" />
  <metadata
     id="metadata5">
    <rdf:RDF>
      <cc:Work
         rdf:about="">
        <dc:format>image/svg+xml</dc:format>
        <dc:type
           rdf:resource="http://purl.org/dc/dcmitype/StillImage" />
        <dc:title></dc:title>
      </cc:Work>
    </rdf:RDF>
  </metadata>
  <g
     inkscape:label="Layer 1"
     inkscape:groupmode="layer"
     id="layer1"
     transform="translate(0,-201)">
    <path
       style="color:#000000;font-style:normal;font-variant:normal;font-weight:normal;font-stretch:normal;font-size:medium;line-height:normal;font-family:sans-serif;font-variant-ligatures:normal;font-variant-position:normal;font-variant-caps:normal;font-variant-numeric:normal;font-variant-alternates:normal;font-feature-settings:normal;text-indent:0;text-align:start;text-decoration:none;text-decoration-line:none;text-decoration-style:solid;text-decoration-color:#000000;letter-spacing:normal;word-spacing:normal;text-transform:none;writing-mode:lr-tb;direction:ltr;text-orientation:mixed;dominant-baseline:auto;baseline-shift:baseline;text-anchor:start;white-space:normal;shape-padding:0;clip-rule:nonzero;display:inline;overflow:visible;visibility:visible;opacity:1;isolation:auto;mix-blend-mode:normal;color-interpolation:sRGB;color-interpolation-filters:linearRGB;solid-color:#000000;solid-opacity:1;vector-effect:none;fill:#ff5162;fill-opacity:1;fill-rule:nonzero;stroke:none;stroke-width:13.20880985;stroke-linecap:butt;stroke-linejoin:miter;stroke-miterlimit:4;stroke-dasharray:none;stroke-dashoffset:0;stroke-opacity:1;color-rendering:auto;image-rendering:auto;shape-rendering:auto;text-rendering:auto;enable-background:accumulate"
       d="m 106.18136,203.78462 c -29.114432,0.007 -57.553012,4.35242 -81.930559,12.60732 l -4.491407,1.51533 v 8.70978 c -3.762824,1.35047 -7.551914,2.68119 -11.0646908,4.21155 l -3.9726362,1.72693 v 62.45644 l 9.296804,-4.13645 c 9.48015,-4.22214 20.191232,-7.80056 31.78794,-10.5937 l 5.057945,-1.22184 v -7.8975 c 17.394347,-3.85868 36.135217,-6.13749 55.302954,-6.19785 19.17023,0.0417 37.91957,2.30631 55.33026,6.15006 v 8.02036 l 5.05797,1.22184 c 11.59668,2.79313 22.30778,6.3716 31.78793,10.59369 l 9.29681,4.13649 v -62.50424 l -3.95897,-1.73375 c -3.51469,-1.54053 -7.31119,-2.87901 -11.07838,-4.23885 v -8.64153 l -4.48456,-1.52217 C 163.75252,208.17112 135.31432,203.808 106.18818,203.78462 Z m 0,6.60739 a 142.45516,71.227586 0 0 1 79.81458,12.30701 v 8.45722 a 142.45515,71.227586 0 0 1 0.0606,0.0199 l -0.0606,0.0474 v 39.58985 l 5.63132,-37.58305 a 142.45515,71.227586 0 0 1 9.40598,3.66548 v 48.01977 A 142.45515,71.227586 0 0 0 168.1054,273.9328 l 17.89054,-3.11943 A 142.45516,71.227586 0 0 0 168.1054,265.7213 v -0.12972 a 142.45516,71.227586 0 0 0 -61.92404,-7.23538 142.45516,71.227586 0 0 0 -61.924029,7.29 142.45516,71.227586 0 0 0 -17.890522,5.09208 l 17.890522,3.11942 a 142.45515,71.227586 0 0 0 -32.927848,10.98277 v -47.95836 a 142.45515,71.227586 0 0 1 9.412834,-3.71327 l 5.624492,37.56944 V 231.14842 222.6434 A 142.45516,71.227586 0 0 1 106.18136,210.391 Z"
       id="path4605"
       inkscape:connector-curvature="0" />
    <path
       d="m 236.48286,109.76491 c -4.44638,0.0137 -8.68613,0.5593 -12.64832,1.88878 v 18.11207 c 3.96219,-1.32948 8.20194,-1.87507 12.64832,-1.88877 8.9398,-0.0274 18.71516,2.09463 28.75328,4.31653 16.38392,3.6265 33.45942,7.51407 48.71279,2.65358 v -18.11207 c -15.25337,4.86049 -32.32887,0.97292 -48.71279,-2.65358 -10.03812,-2.2219 -19.81348,-4.34399 -28.75328,-4.31654 z"
       style="fill:#00ff00;fill-opacity:0.93142904;stroke:none;stroke-width:0.264999;stroke-miterlimit:4;stroke-dasharray:none;stroke-opacity:1"
       id="path853"
       inkscape:connector-curvature="0" />
    <g
       id="g4712"
       transform="matrix(9.4757817,0,0,9.4757817,-192.1614,-512.63379)"
       style="fill:#ff5162;fill-opacity:1">
      <path
         id="path4644"
         d="m 23.420276,78.246387 c 0,0 1.238699,-0.332296 1.238699,-0.332296 0.261577,-0.07017 0.462448,-0.0085 0.602611,0.185125 0.140163,0.192047 0.210244,0.45798 0.210244,0.797792 0,0.332052 -0.06651,0.632277 -0.199531,0.900667 -0.133021,0.268382 -0.293271,0.427684 -0.480749,0.477914 -0.156233,0.04186 -0.312019,-0.01957 -0.467359,-0.184287 0,0 0,1.463741 0,1.463741 0,0 -0.903915,0.242031 -0.903915,0.242031 0,0 0,-3.550687 0,-3.550687 z m 0.903915,0.525453 c 0,0 0,0.772596 0,0.772596 0.02678,0.0052 0.05178,0.0047 0.07499,-0.0015 0.06785,-0.01819 0.122754,-0.07014 0.164713,-0.15585 0.04196,-0.08571 0.06294,-0.189079 0.06294,-0.310097 0,-0.119463 -0.01785,-0.208539 -0.05356,-0.267228 -0.03571,-0.06024 -0.0866,-0.0815 -0.152662,-0.06378 0,0 -0.09641,0.02584 -0.09641,0.02584 z"
         style="font-style:normal;font-variant:normal;font-weight:normal;font-stretch:normal;font-size:2.70347404px;line-height:125%;font-family:'Gill Sans Ultra Bold';-inkscape-font-specification:'Gill Sans Ultra Bold, Normal';font-variant-ligatures:normal;font-variant-caps:normal;font-variant-numeric:normal;font-feature-settings:normal;text-align:start;letter-spacing:0px;word-spacing:0px;writing-mode:lr-tb;text-anchor:start;fill:#ff5162;fill-opacity:1;stroke:none;stroke-width:0.48113358px;stroke-linecap:butt;stroke-linejoin:miter;stroke-opacity:1"
         inkscape:connector-curvature="0" />
      <path
         id="path4646"
         d="m 25.641845,77.655723 c 0,0 1.318676,-0.214647 1.318676,-0.214647 0.228376,-0.03717 0.407815,0.03521 0.538317,0.217155 0.1305,0.180385 0.195751,0.422573 0.195751,0.726569 0,0.335017 -0.07671,0.60964 -0.230141,0.823876 0.217796,0.401879 0.347856,0.947553 0.390181,1.637033 0,0 -0.927174,0.151354 -0.927174,0.151354 -0.01675,-0.445551 -0.05511,-0.770467 -0.11507,-0.974749 -0.05908,-0.204429 -0.151661,-0.296364 -0.277756,-0.275802 0,0 0,1.314677 0,1.314677 0,0 -0.892784,0.14574 -0.892784,0.14574 0,0 0,-3.551206 0,-3.551206 z m 0.892784,0.585311 c 0,0 0,0.684098 0,0.684098 0,0 0.02513,-0.0041 0.02513,-0.0041 0.16048,-0.02615 0.240721,-0.150137 0.240721,-0.371957 0,-0.09307 -0.01631,-0.171848 -0.04894,-0.236341 -0.03262,-0.06604 -0.08685,-0.09288 -0.162685,-0.08053 0,0 -0.05423,0.0088 -0.05423,0.0088 z"
         style="font-style:normal;font-variant:normal;font-weight:normal;font-stretch:normal;font-size:2.70347404px;line-height:125%;font-family:'Gill Sans Ultra Bold';-inkscape-font-specification:'Gill Sans Ultra Bold, Normal';font-variant-ligatures:normal;font-variant-caps:normal;font-variant-numeric:normal;font-feature-settings:normal;text-align:start;letter-spacing:0px;word-spacing:0px;writing-mode:lr-tb;text-anchor:start;fill:#ff5162;fill-opacity:1;stroke:none;stroke-width:0.48113358px;stroke-linecap:butt;stroke-linejoin:miter;stroke-opacity:1"
         inkscape:connector-curvature="0" />
      <path
         id="path4648"
         d="m 29.038148,80.735955 c -0.282537,0.02469 -0.522304,-0.126412 -0.719302,-0.453344 -0.196134,-0.328561 -0.294201,-0.740844 -0.294201,-1.236814 0,-0.494467 0.09807,-0.92151 0.294201,-1.281094 0.196998,-0.361112 0.436765,-0.553815 0.719302,-0.578145 0.2834,-0.02441 0.523168,0.126939 0.719302,0.453995 0.196997,0.325432 0.295496,0.735182 0.295496,1.229288 0,0.495609 -0.0985,0.924703 -0.295496,1.287318 -0.196134,0.361085 -0.435902,0.554029 -0.719302,0.578796 z m 0,-2.23105 c -0.05616,0.0049 -0.102817,0.04346 -0.139972,0.115785 -0.03715,0.07083 -0.05573,0.158079 -0.05573,0.261754 0,0.103668 0.01858,0.188449 0.05573,0.254342 0.03715,0.06438 0.08381,0.09413 0.139972,0.08926 0.05702,-0.005 0.104113,-0.04284 0.141268,-0.11367 0.03715,-0.07233 0.05573,-0.160321 0.05573,-0.263981 0,-0.103654 -0.01858,-0.187674 -0.05573,-0.252063 -0.03715,-0.06589 -0.08424,-0.09636 -0.141268,-0.09142 z"
         style="font-style:normal;font-variant:normal;font-weight:normal;font-stretch:normal;font-size:2.70347404px;line-height:125%;font-family:'Gill Sans Ultra Bold';-inkscape-font-specification:'Gill Sans Ultra Bold, Normal';font-variant-ligatures:normal;font-variant-caps:normal;font-variant-numeric:normal;font-feature-settings:normal;text-align:start;letter-spacing:0px;word-spacing:0px;writing-mode:lr-tb;text-anchor:start;fill:#ff5162;fill-opacity:1;stroke:none;stroke-width:0.48113358px;stroke-linecap:butt;stroke-linejoin:miter;stroke-opacity:1"
         inkscape:connector-curvature="0" />
      <path
         id="path4650"
         d="m 30.705921,77.085515 c 0,0 0.942793,-0.01839 0.942793,-0.01839 0,0 0,2.071207 0,2.071207 0,0.448572 -0.01441,0.757042 -0.04323,0.92541 -0.02882,0.166839 -0.0953,0.302332 -0.199437,0.406476 -0.103205,0.10259 -0.227794,0.155227 -0.373769,0.157916 -0.193393,0.0036 -0.364937,-0.07107 -0.51463,-0.22388 -0.148765,-0.152816 -0.248715,-0.362191 -0.299853,-0.62813 0.05206,0.01733 0.119939,0.02521 0.203621,0.02365 0.12087,-0.0023 0.198506,-0.03345 0.232908,-0.09358 0.0344,-0.06165 0.0516,-0.184 0.0516,-0.36704 0,0 0,-2.253646 0,-2.253646 z"
         style="font-style:normal;font-variant:normal;font-weight:normal;font-stretch:normal;font-size:2.70347404px;line-height:125%;font-family:'Gill Sans Ultra Bold';-inkscape-font-specification:'Gill Sans Ultra Bold, Normal';font-variant-ligatures:normal;font-variant-caps:normal;font-variant-numeric:normal;font-feature-settings:normal;text-align:start;letter-spacing:0px;word-spacing:0px;writing-mode:lr-tb;text-anchor:start;fill:#ff5162;fill-opacity:1;stroke:none;stroke-width:0.48113358px;stroke-linecap:butt;stroke-linejoin:miter;stroke-opacity:1"
         inkscape:connector-curvature="0" />
      <path
         id="path4652"
         d="m 33.494596,79.799391 c 0,0 0,0.890772 0,0.890772 0,0 -1.683102,-0.06925 -1.683102,-0.06925 0,0 0,-3.550169 0,-3.550169 0,0 1.683102,0.07028 1.683102,0.07028 0,0 0,0.890772 0,0.890772 0,0 -0.786422,-0.03272 -0.786422,-0.03272 0,0 0,0.439632 0,0.439632 0,0 0.547307,0.02273 0.547307,0.02273 0,0 0,0.890809 0,0.890809 0,0 -0.547307,-0.02264 -0.547307,-0.02264 0,0 0,0.437307 0,0.437307 0,0 0.786422,0.03248 0.786422,0.03248 z"
         style="font-style:normal;font-variant:normal;font-weight:normal;font-stretch:normal;font-size:2.70347404px;line-height:125%;font-family:'Gill Sans Ultra Bold';-inkscape-font-specification:'Gill Sans Ultra Bold, Normal';font-variant-ligatures:normal;font-variant-caps:normal;font-variant-numeric:normal;font-feature-settings:normal;text-align:start;letter-spacing:0px;word-spacing:0px;writing-mode:lr-tb;text-anchor:start;fill:#ff5162;fill-opacity:1;stroke:none;stroke-width:0.48113358px;stroke-linecap:butt;stroke-linejoin:miter;stroke-opacity:1"
         inkscape:connector-curvature="0" />
      <path
         id="path4654"
         d="m 35.527546,77.712806 c 0,0 -0.360669,1.17718 -0.360669,1.17718 -0.105355,-0.07576 -0.221754,-0.12038 -0.349199,-0.133849 -0.182671,-0.0193 -0.274006,0.05896 -0.274006,0.234807 0,0.08416 0.02549,0.152984 0.07646,0.206472 0.05098,0.05198 0.123619,0.08296 0.21793,0.09293 0.127445,0.01348 0.237048,-0.01551 0.328808,-0.08697 0,0 0.360669,1.341377 0.360669,1.341377 -0.101956,0.09742 -0.225153,0.170792 -0.369591,0.220122 -0.144437,0.04932 -0.282502,0.067 -0.414195,0.05304 -0.330507,-0.03504 -0.593893,-0.231274 -0.790158,-0.588698 -0.195415,-0.358817 -0.293123,-0.784663 -0.293123,-1.277555 0,-0.521443 0.101956,-0.940455 0.305867,-1.257054 0.203912,-0.318121 0.46305,-0.460615 0.777414,-0.427464 0.135941,0.01434 0.27613,0.06218 0.420568,0.143548 0.145287,0.07995 0.26636,0.180658 0.363218,0.302113 0,0 3e-6,-2e-6 3e-6,-2e-6 z"
         style="font-style:normal;font-variant:normal;font-weight:normal;font-stretch:normal;font-size:2.70347404px;line-height:125%;font-family:'Gill Sans Ultra Bold';-inkscape-font-specification:'Gill Sans Ultra Bold, Normal';font-variant-ligatures:normal;font-variant-caps:normal;font-variant-numeric:normal;font-feature-settings:normal;text-align:start;letter-spacing:0px;word-spacing:0px;writing-mode:lr-tb;text-anchor:start;fill:#ff5162;fill-opacity:1;stroke:none;stroke-width:0.48113358px;stroke-linecap:butt;stroke-linejoin:miter;stroke-opacity:1"
         inkscape:connector-curvature="0" />
      <path
         id="path4656"
         d="m 35.694461,78.94413 c 0,0 0,-1.573143 0,-1.573143 0,0 1.844333,0.340032 1.844333,0.340032 0,0 0,1.571997 0,1.571997 0,0 -0.462443,-0.08497 -0.462443,-0.08497 0,0 0,1.976983 0,1.976983 0,0 -0.919447,-0.168225 -0.919447,-0.168225 0,0 0,-1.977702 0,-1.977702 0,0 -0.462443,-0.08497 -0.462443,-0.08497 z"
         style="font-style:normal;font-variant:normal;font-weight:normal;font-stretch:normal;font-size:2.70347404px;line-height:125%;font-family:'Gill Sans Ultra Bold';-inkscape-font-specification:'Gill Sans Ultra Bold, Normal';font-variant-ligatures:normal;font-variant-caps:normal;font-variant-numeric:normal;font-feature-settings:normal;text-align:start;letter-spacing:0px;word-spacing:0px;writing-mode:lr-tb;text-anchor:start;fill:#ff5162;fill-opacity:1;stroke:none;stroke-width:0.48113358px;stroke-linecap:butt;stroke-linejoin:miter;stroke-opacity:1"
         inkscape:connector-curvature="0" />
      <path
         id="path4658"
         d="m 39.516029,78.473326 c 0,0 -0.216465,1.025025 -0.216465,1.025025 -0.141733,-0.373545 -0.304511,-0.585308 -0.488334,-0.635294 -0.102219,-0.0278 -0.153329,0.0259 -0.153329,0.1611 0,0.04206 0.01589,0.08919 0.04767,0.141396 0.03264,0.05244 0.11725,0.143798 0.253831,0.274081 0.150322,0.144533 0.265856,0.270597 0.346601,0.378191 0.0816,0.106319 0.142591,0.231071 0.182964,0.374256 0.04037,0.143183 0.06056,0.302658 0.06056,0.478424 0,0.368061 -0.07989,0.627251 -0.239657,0.777567 -0.159772,0.148809 -0.394705,0.181017 -0.704799,0.09663 -0.347889,-0.09468 -0.647675,-0.262631 -0.899359,-0.50386 0,0 0.2126,-1.091247 0.2126,-1.091247 0.06184,0.18506 0.138294,0.339545 0.229349,0.463456 0.09191,0.124142 0.179958,0.197665 0.264138,0.220568 0.04123,0.01122 0.07559,0.0018 0.103078,-0.02828 0.02835,-0.02984 0.04252,-0.0718 0.04252,-0.125875 0,-0.05107 -0.01374,-0.103629 -0.04123,-0.157671 -0.02663,-0.05381 -0.09792,-0.137798 -0.213889,-0.251964 -0.104796,-0.102109 -0.191554,-0.19706 -0.260272,-0.284852 -0.06872,-0.08929 -0.128419,-0.205416 -0.179099,-0.348384 -0.05068,-0.142963 -0.07602,-0.31283 -0.07602,-0.509602 0,-0.381526 0.07946,-0.64757 0.238368,-0.798133 0.158913,-0.150567 0.393417,-0.183702 0.703511,-0.0994 0.283465,0.07706 0.545885,0.225019 0.787261,0.443873 0,0 2e-6,-10e-7 2e-6,-10e-7 z"
         style="font-style:normal;font-variant:normal;font-weight:normal;font-stretch:normal;font-size:2.70347404px;line-height:125%;font-family:'Gill Sans Ultra Bold';-inkscape-font-specification:'Gill Sans Ultra Bold, Normal';font-variant-ligatures:normal;font-variant-caps:normal;font-variant-numeric:normal;font-feature-settings:normal;text-align:start;letter-spacing:0px;word-spacing:0px;writing-mode:lr-tb;text-anchor:start;fill:#ff5162;fill-opacity:1;stroke:none;stroke-width:0.48113358px;stroke-linecap:butt;stroke-linejoin:miter;stroke-opacity:1"
         inkscape:connector-curvature="0" />
    </g>
    <path
       id="path4620"
       d="m -74.03475,135.52082 c -2.204169,5.3e-4 -4.35717,0.32951 -6.202722,0.95447 l -0.340031,0.11472 v 0.65939 c -0.284872,0.10224 -0.571733,0.20299 -0.837675,0.31884 l -0.300757,0.13074 v 4.7284 l 0.703833,-0.31316 c 0.717715,-0.31965 1.52862,-0.59056 2.406572,-0.80202 l 0.382922,-0.0925 v -0.5979 c 1.316875,-0.29213 2.735691,-0.46465 4.186824,-0.46922 1.451321,0.003 2.870779,0.17461 4.188891,0.46561 v 0.60719 l 0.382923,0.0925 c 0.877951,0.21146 1.688857,0.48238 2.406571,0.80202 l 0.703834,0.31316 v -4.73201 l -0.299723,-0.13126 c -0.266086,-0.11663 -0.553508,-0.21796 -0.83871,-0.32091 v -0.65422 l -0.339514,-0.11524 c -1.844696,-0.62651 -3.997668,-0.95683 -6.202722,-0.9586 z m 0,0.50023 a 10.784859,5.3924303 0 0 1 6.042525,0.93173 v 0.64027 a 10.784859,5.3924303 0 0 1 0.0047,0.002 l -0.0047,0.004 v 2.99723 l 0.426331,-2.8453 a 10.784859,5.3924303 0 0 1 0.7121,0.2775 v 3.63544 a 10.784859,5.3924303 0 0 0 -2.49287,-0.83148 l 1.354439,-0.23616 a 10.78486,5.3924303 0 0 0 -1.354439,-0.38551 v -0.01 a 10.784859,5.3924303 0 0 0 -4.688086,-0.54776 10.784859,5.3924303 0 0 0 -4.688086,0.5519 10.784859,5.3924303 0 0 0 -1.354439,0.38551 l 1.354439,0.23616 a 10.784859,5.3924303 0 0 0 -2.492871,0.83147 v -3.63078 a 10.784859,5.3924303 0 0 1 0.712618,-0.28112 l 0.425814,2.84427 v -2.99729 -0.64389 a 10.784859,5.3924303 0 0 1 6.042525,-0.92759 z"
       style="color:#000000;font-style:normal;font-variant:normal;font-weight:normal;font-stretch:normal;font-size:medium;line-height:normal;font-family:sans-serif;font-variant-ligatures:normal;font-variant-position:normal;font-variant-caps:normal;font-variant-numeric:normal;font-variant-alternates:normal;font-feature-settings:normal;text-indent:0;text-align:start;text-decoration:none;text-decoration-line:none;text-decoration-style:solid;text-decoration-color:#000000;letter-spacing:normal;word-spacing:normal;text-transform:none;writing-mode:lr-tb;direction:ltr;text-orientation:mixed;dominant-baseline:auto;baseline-shift:baseline;text-anchor:start;white-space:normal;shape-padding:0;clip-rule:nonzero;display:inline;overflow:visible;visibility:visible;opacity:1;isolation:auto;mix-blend-mode:normal;color-interpolation:sRGB;color-interpolation-filters:linearRGB;solid-color:#000000;solid-opacity:1;vector-effect:none;fill:#390000;fill-opacity:1;fill-rule:nonzero;stroke:none;stroke-width:1;stroke-linecap:butt;stroke-linejoin:miter;stroke-miterlimit:4;stroke-dasharray:none;stroke-dashoffset:0;stroke-opacity:1;color-rendering:auto;image-rendering:auto;shape-rendering:auto;text-rendering:auto;enable-background:accumulate"
       inkscape:connector-curvature="0" />
    <path
       inkscape:connector-curvature="0"
       id="path4622"
       d="m -74.034749,136.56646 a 10.78486,5.3924303 0 0 0 -6.042526,0.9276 v 2.54661 a 10.78486,5.3924303 0 0 1 6.042526,-0.92759 10.78486,5.3924303 0 0 1 6.042525,0.93173 v -2.54662 a 10.78486,5.3924303 0 0 0 -6.042525,-0.93173 z"
       style="fill:#00ff00;fill-opacity:0.93142856;stroke-width:0.26499999" />
  </g>
</svg>
